<?xml version="1.0" encoding="UTF-8"?>
<svg width="1619px" height="280px" viewBox="0 0 1619 280" version="1.1" xmlns="http://www.w3.org/2000/svg" xmlns:xlink="http://www.w3.org/1999/xlink">
    <!-- Generator: Sketch 63.1 (92452) - https://sketch.com -->
    <title>wexpats_guide</title>
    <desc>Created with Sketch.</desc>
    <defs>
        <rect id="path-1" x="0" y="0" width="1619" height="280"></rect>
    </defs>
    <g id="wexpats_guide" stroke="none" stroke-width="1" fill="none" fill-rule="evenodd">
        <mask id="mask-2" fill="white">
            <use xlink:href="#path-1"></use>
        </mask>
        <g id="Mask"></g>
        <g id="Group-35" mask="url(#mask-2)">
            <g transform="translate(8.000000, 8.000000)">
                <path d="M203.046157,116.708105 C203.046157,90.9437354 195.241911,66.2201354 180.477203,45.2087815 C166.048588,24.6797354 146.064803,9.13216615 122.682526,0.251612308 C120.792895,-0.466264615 118.614895,0.402904615 117.739634,2.23567385 L114.99708,8.00001231 C114.519849,8.99305846 114.484311,10.1465354 114.894526,11.1537969 C115.30068,12.1712123 116.125172,12.9804738 117.159849,13.3713969 C118.263572,13.7846585 119.400803,14.2385354 120.639572,14.7594277 L118.121418,21.39192 C117.534526,22.9281969 118.248342,24.6675508 119.747049,25.35192 L124.028926,27.3024738 C125.445388,27.9553662 127.094372,27.4740738 127.942218,26.1723508 L131.867695,20.1754892 C146.542034,28.2884123 158.922618,39.4028123 168.688588,53.2221969 C181.870311,71.8839508 188.83788,93.8375815 188.83788,116.708105 C188.83788,146.031397 177.348803,173.447797 156.48468,193.908812 C135.70788,214.280474 107.993972,225.500474 78.4493262,225.500474 C64.1303723,225.500474 50.1515723,222.752843 36.8825262,217.331705 L39.4077877,210.672812 C39.9956954,209.132474 39.28188,207.391089 37.7780954,206.708751 L33.5053569,204.758197 C32.0807723,204.115458 30.4358492,204.588628 29.5839415,205.895428 L25.60668,211.968443 C24.5527108,211.396782 23.5820031,210.850505 22.6783108,210.317428 C21.7197877,209.762012 20.5835723,209.627982 19.5417877,209.948843 C18.4928954,210.27072 17.6166185,211.022105 17.1393877,212.018197 L14.3846492,217.804874 C13.5124338,219.634597 14.2039108,221.869458 15.9595108,222.890935 C31.9975108,232.210135 52.5976338,238.212074 72.6931108,239.451858 L72.6372646,248.16792 L50.2185877,246.964689 C47.5948338,246.964689 45.1599415,248.147612 43.5393877,250.208843 L38.4452031,256.692074 C37.6044646,257.762289 37.4511415,259.190935 38.0461569,260.421582 C38.6462492,261.648166 39.8657262,262.409705 41.2263415,262.409705 L117.82188,262.409705 C119.183511,262.409705 120.401972,261.648166 121.006126,260.41752 C121.598095,259.190935 121.443757,257.762289 120.604034,256.690043 L115.509849,250.208843 C113.88828,248.149643 111.438157,246.96672 108.703726,246.96672 L108.696618,246.96672 L86.4231415,248.16792 L86.4231415,239.306658 C151.935757,234.166782 203.046157,180.579858 203.046157,116.708105" id="Fill-1" fill="#00325C"></path>
                <path d="M35.8091631,188.564945 C50.4784246,198.962483 67.6699015,204.239437 84.9395631,204.239437 C99.5418092,204.239437 114.201932,200.466268 127.441532,192.82956 C168.030517,169.416822 182.000178,117.355006 158.581348,76.77516 C135.162517,36.19836 83.0864862,22.2307292 42.4975015,45.6444831 C1.90750154,69.0572215 -12.0611446,121.119037 11.3566708,161.696852 C12.0126092,162.833068 12.6959631,163.957098 13.4067323,165.066914 C13.4950708,165.206022 13.4920246,165.383714 13.3965785,165.517745 L2.31771692,184.035314 C2.08925538,184.360237 2.28014769,184.812083 2.67310154,184.873006 L35.5360246,188.454268 C35.6345169,188.469498 35.7279323,188.507068 35.8091631,188.564945" id="Fill-3" fill="#44C6C5"></path>
                <path d="M400.650969,81.7229262 L354.792138,205.637418 C353.204077,209.74668 349.432938,212.418157 345.461769,212.418157 L345.2658,212.418157 C341.0946,212.418157 337.323462,209.540557 335.935431,205.637418 L314.295554,147.89148 L292.259677,205.637418 C290.672631,209.74668 286.897431,212.418157 282.929308,212.418157 L282.730292,212.418157 C278.558077,212.418157 274.786938,209.540557 273.399923,205.637418 L228.928108,82.5413262 C226.945062,77.1993877 229.524138,71.2421262 234.687369,69.3941262 C239.8506,67.3349262 245.404754,70.0094492 247.392877,75.3513877 L282.929308,173.57868 L304.9662,115.832742 C306.553246,111.722465 310.324385,109.056065 314.295554,109.259142 C318.462692,109.056065 322.233831,111.722465 323.625923,115.832742 L345.461769,173.57868 L382.190262,74.5289262 C384.174323,69.1869877 389.733554,66.5165262 394.896785,68.5706492 C400.059,70.4196646 402.639092,76.3809877 400.650969,81.7229262" id="Fill-5" fill="#00325C"></path>
                <path d="M422.924548,150.566308 L480.301902,150.566308 C476.129686,136.178308 463.425194,129.603692 451.514732,129.603692 C438.214209,129.603692 427.095748,138.439569 422.924548,150.566308 M501.341686,160.835908 C501.341686,166.389046 496.974517,170.907508 491.415286,170.907508 L422.924548,170.907508 C427.095748,183.237323 438.214209,192.076246 451.514732,192.076246 C456.077871,192.076246 464.22024,191.662985 473.746578,185.291446 C478.313778,182.211785 484.46904,185.089385 486.852148,190.018062 C489.232209,195.156923 486.652117,200.497846 482.084917,203.582585 C468.983409,212.624585 458.857994,212.418853 451.514732,212.418853 C423.92064,212.418853 401.684732,189.198646 401.684732,160.835908 C401.684732,132.275169 423.92064,109.258431 451.514732,109.258431 C475.534671,109.258431 501.341686,127.342431 501.341686,160.835908" id="Fill-7" fill="#00325C"></path>
                <path d="M623.017255,195.359289 C626.392394,199.882828 625.600394,206.253351 621.233225,209.540151 C619.446148,210.978951 617.462086,211.802428 615.274948,211.802428 C612.298855,211.802428 609.519748,210.363628 607.535686,207.899289 L569.019102,157.140212 L528.719502,208.515628 C526.73544,210.978951 523.956332,212.417751 520.977194,212.417751 C518.793102,212.417751 516.810055,211.595289 515.021963,210.160551 C510.654794,206.869689 509.858732,200.498151 513.233871,195.979689 L556.513625,140.495012 L513.630886,85.4195354 C510.258794,80.9000585 511.050794,74.52852 515.417963,71.0355969 C519.589163,67.54572 525.744425,68.36412 529.115502,72.8876585 L569.019102,123.848797 L608.127655,72.8876585 C611.503809,68.36412 617.658055,67.54572 621.829255,71.0355969 C626.196425,74.52852 626.988425,80.9000585 623.613286,85.4195354 L581.529655,140.495012 L623.017255,195.359289 Z" id="Fill-9" fill="#44C6C5"></path>
                <path d="M662.042142,161.663142 L662.042142,161.866218 C662.042142,178.920618 675.543711,192.895357 692.220388,192.895357 C708.897065,192.895357 722.394572,178.920618 722.394572,161.663142 C722.394572,144.60468 708.897065,130.422803 692.220388,130.422803 C675.543711,130.422803 662.042142,144.397542 662.042142,161.663142 M662.042142,202.759818 L662.042142,253.928095 C662.042142,259.477172 657.674972,263.999695 652.315772,263.999695 C646.757557,263.999695 642.390388,259.477172 642.390388,253.928095 L642.390388,161.866218 L642.390388,161.663142 C642.390388,133.300403 664.821249,110.081603 692.220388,110.081603 C719.81448,110.081603 742.050388,133.300403 742.050388,161.663142 C742.050388,190.22388 719.81448,213.240618 692.220388,213.240618 C680.902911,213.240618 670.38048,209.333418 662.042142,202.759818" id="Fill-11" fill="#44C6C5"></path>
                <path d="M838.569803,161.663142 C838.569803,144.397542 825.864295,129.806465 809.187618,129.806465 C792.510942,129.806465 778.417403,144.397542 778.417403,161.663142 C778.417403,178.920618 792.510942,192.076957 809.187618,192.076957 C825.864295,192.076957 838.569803,178.920618 838.569803,161.663142 M858.026603,161.663142 L858.026603,201.937357 C858.026603,207.899695 853.854388,212.211018 848.100203,212.211018 C844.129034,212.211018 838.569803,207.899695 838.569803,201.937357 C830.031434,209.333418 820.505095,212.211018 809.187618,212.211018 C781.196511,212.211018 758.961618,190.63308 758.961618,161.663142 C758.961618,132.684065 781.196511,109.672403 809.187618,109.672403 C837.177711,109.672403 858.026603,132.684065 858.026603,161.663142" id="Fill-13" fill="#44C6C5"></path>
                <path d="M941.526249,107.935588 L917.667757,107.935588 L917.667757,65.5158646 C917.667757,60.13128 913.125942,55.7509108 907.547418,55.7509108 C902.082618,55.7509108 897.639295,60.13128 897.639295,65.5158646 L897.639295,107.935588 L874.468218,107.935588 C869.003418,107.935588 864.560095,112.315957 864.560095,117.700542 C864.560095,123.105434 869.097849,127.673649 874.468218,127.673649 L897.639295,127.673649 L897.639295,202.162265 C897.639295,207.569188 902.177049,212.136388 907.547418,212.136388 C913.125942,212.136388 917.667757,207.661588 917.667757,202.162265 L917.667757,127.673649 L941.526249,127.673649 C947.105788,127.673649 951.647603,123.198849 951.647603,117.700542 C951.647603,112.315957 947.105788,107.935588 941.526249,107.935588" id="Fill-15" fill="#44C6C5"></path>
                <path d="M1001.56878,151.086388 L1001.55152,151.080295 C987.0102,146.040942 983.489862,142.443434 983.356846,136.745095 C983.245154,131.921003 987.836723,127.097926 998.613,126.842049 C1005.42725,126.679588 1014.80331,129.677003 1015.20032,129.842511 C1017.70426,130.680203 1020.41635,130.575618 1022.7954,129.535865 C1025.17749,128.495095 1026.95848,126.625772 1027.80937,124.274142 C1029.51217,119.562757 1026.63965,114.305095 1021.40534,112.554572 C1021.28654,112.515988 1008.48254,108.879895 998.644477,108.791557 C978.210877,108.607772 963.670569,120.916265 964.062508,137.713772 C964.381338,151.379834 974.033585,162.15408 992.746108,167.953957 C1007.73725,173.056265 1009.08162,177.921988 1009.19737,182.871988 C1009.37811,190.643742 1003.2726,194.717465 992.860846,194.773311 C985.400815,194.813926 978.200723,192.049034 973.881277,190.640695 C972.642508,190.235557 971.4078,190.046695 970.226908,190.074111 C969.429831,190.093403 968.658138,190.211188 967.924015,190.427465 C965.423123,191.164634 963.428908,192.795342 962.311985,195.019034 C961.239738,197.151342 961.167646,199.599434 962.105862,201.910449 C963.050169,204.236695 964.902231,206.138511 967.319862,207.264572 L967.7514,207.466634 C974.239708,211.070234 983.060354,213.334542 992.401892,213.113188 C1004.09405,212.834972 1013.77371,209.455772 1020.39097,203.341126 C1026.48937,197.704726 1029.74165,190.820418 1029.54365,182.316572 C1029.30503,172.131249 1025.79383,159.65928 1001.56878,151.086388" id="Fill-17" fill="#44C6C5"></path>
                <path d="M51.5798123,114.679772 L45.0447969,114.679772 C43.0658123,114.679772 41.4615046,116.28408 41.4615046,118.262049 L41.4615046,125.102695 C41.4615046,127.080665 43.0658123,128.683957 45.0447969,128.683957 L51.5798123,128.683957 C53.5587969,128.683957 55.1631046,127.080665 55.1631046,125.102695 L55.1631046,118.262049 C55.1631046,116.28408 53.5587969,114.679772 51.5798123,114.679772" id="Fill-19" fill="#FFFFFF"></path>
                <path d="M87.3191169,114.679772 L80.7841015,114.679772 C78.8051169,114.679772 77.2008092,116.28408 77.2008092,118.262049 L77.2008092,125.102695 C77.2008092,127.080665 78.8051169,128.683957 80.7841015,128.683957 L87.3191169,128.683957 C89.2981015,128.683957 90.9024092,127.080665 90.9024092,125.102695 L90.9024092,118.262049 C90.9024092,116.28408 89.2981015,114.679772 87.3191169,114.679772" id="Fill-21" fill="#FFFFFF"></path>
                <path d="M124.080711,114.679772 L117.545695,114.679772 C115.566711,114.679772 113.962403,116.28408 113.962403,118.262049 L113.962403,125.102695 C113.962403,127.080665 115.566711,128.683957 117.545695,128.683957 L124.080711,128.683957 C126.059695,128.683957 127.664003,127.080665 127.664003,125.102695 L127.664003,118.262049 C127.664003,116.28408 126.059695,114.679772 124.080711,114.679772" id="Fill-23" fill="#FFFFFF"></path>
                <path d="M1231.13496,148.441311 C1231.13496,158.019434 1229.30118,167.597557 1225.63462,176.551218 C1221.96908,185.087557 1216.87591,192.79128 1210.35714,199.454234 C1203.83838,206.117188 1196.30118,211.323065 1187.94964,215.070849 C1179.18991,218.818634 1169.81893,220.693034 1160.24487,220.693034 C1150.87388,220.693034 1141.50391,218.818634 1132.74419,215.070849 C1124.39164,211.323065 1116.85444,206.117188 1110.33567,199.454234 C1103.8169,192.79128 1098.72474,185.087557 1095.05718,176.551218 C1091.39062,167.597557 1089.55684,158.019434 1089.55684,148.441311 C1089.55684,138.655034 1091.39062,129.076911 1095.05718,120.123249 C1098.72474,111.586911 1103.8169,103.883188 1110.33567,97.2202338 C1116.85444,90.55728 1124.39164,85.3514031 1132.74419,81.6036185 C1141.50391,77.8558338 1150.67081,75.9814338 1160.04078,75.9814338 C1183.05954,75.3569723 1203.63428,85.1432492 1218.91278,105.964726 C1222.37625,110.754295 1220.1353,117.417249 1215.24622,120.331403 C1210.15305,123.247588 1204.65271,120.95688 1200.98718,116.583618 C1189.37524,102.633249 1176.13361,96.8039262 1160.04078,96.8039262 C1132.33601,97.01208 1109.9285,119.915095 1109.9285,148.441311 C1109.9285,176.759372 1132.5401,199.870542 1160.24487,199.870542 C1184.69025,199.870542 1205.05988,182.172388 1209.74588,158.852049 L1165.5401,158.852049 C1159.83668,158.852049 1155.35579,154.063495 1155.35579,148.441311 C1155.35579,142.610972 1159.83668,138.030572 1165.5401,138.030572 L1220.94964,138.030572 C1226.44998,138.030572 1231.13496,142.610972 1231.13496,148.441311" id="Fill-25" fill="#00325C"></path>
                <path d="M1329.9397,126.994865 L1329.9397,179.257726 L1329.9397,179.46588 C1329.73561,202.578065 1311.40182,221.318003 1288.58613,221.318003 C1265.97453,221.318003 1247.64075,202.578065 1247.43767,179.46588 L1247.43767,179.257726 L1247.43767,126.994865 C1247.43767,121.37268 1251.91856,116.79228 1257.4189,116.79228 C1263.12232,116.79228 1267.60422,121.37268 1267.60422,126.994865 L1267.60422,179.049572 C1267.60422,190.918403 1276.97521,200.703665 1288.58613,200.703665 C1300.40115,200.703665 1309.77213,190.918403 1309.77213,179.049572 L1309.77213,126.994865 C1309.77213,121.37268 1314.25404,116.79228 1319.95746,116.79228 C1325.45779,116.79228 1329.9397,121.37268 1329.9397,126.994865" id="Fill-27" fill="#00325C"></path>
                <path d="M1346.64593,210.906858 L1346.64593,126.994458 C1346.64593,121.373289 1351.12682,116.792889 1356.83023,116.792889 C1362.33057,116.792889 1366.81248,121.373289 1366.81248,126.994458 L1366.81248,210.906858 C1366.81248,216.737197 1362.33057,221.317597 1356.83023,221.317597 C1351.12682,221.317597 1346.64593,216.737197 1346.64593,210.906858 M1349.70122,93.0552277 C1347.86743,91.1818431 1346.64593,88.4748277 1346.64593,85.7678123 C1346.64593,83.0607969 1347.86743,80.3537815 1349.70122,78.4803969 C1351.53399,76.6059969 1354.18313,75.3570738 1356.83023,75.3570738 C1359.47937,75.3570738 1362.1275,76.6059969 1363.96128,78.4803969 C1365.79405,80.3537815 1366.81248,83.0607969 1366.81248,85.7678123 C1366.81248,88.4748277 1365.79405,91.1818431 1363.96128,93.0552277 C1362.1275,94.9296277 1359.47937,95.9703969 1356.83023,95.9703969 C1354.18313,95.9703969 1351.53399,94.9296277 1349.70122,93.0552277" id="Fill-29" fill="#00325C"></path>
                <path d="M1464.7974,168.430274 L1464.7974,168.22212 C1464.7974,150.940274 1450.94451,136.781751 1433.83426,136.781751 C1416.72198,136.781751 1402.87011,150.940274 1402.87011,168.430274 C1402.87011,185.71212 1416.72198,200.078797 1433.83426,200.078797 C1450.94451,200.078797 1464.7974,185.920274 1464.7974,168.430274 M1464.7974,126.786305 L1464.7974,74.9407662 C1464.7974,69.3185815 1469.27931,64.7371662 1474.77965,64.7371662 C1480.48306,64.7371662 1484.96395,69.3185815 1484.96395,74.9407662 L1484.96395,168.22212 L1484.96395,168.430274 C1484.96395,197.164643 1461.94518,220.693135 1433.83426,220.693135 C1405.51823,220.693135 1382.70254,197.164643 1382.70254,168.430274 C1382.70254,139.487751 1405.51823,116.167412 1433.83426,116.167412 C1445.44518,116.167412 1456.24177,120.123351 1464.7974,126.786305" id="Fill-31" fill="#00325C"></path>
                <path d="M1522.44921,158.435538 L1581.32121,158.435538 C1577.04441,143.860708 1564.00687,137.197754 1551.78367,137.197754 C1538.13487,137.197754 1526.72804,146.1504 1522.44921,158.435538 M1602.91438,168.846277 C1602.91438,174.468462 1598.43349,179.048862 1592.72906,179.048862 L1522.44921,179.048862 C1526.72804,191.542154 1538.13487,200.495815 1551.78367,200.495815 C1556.46967,200.495815 1564.8202,200.079508 1574.59835,193.624708 C1579.28435,190.501385 1585.59903,193.416554 1588.04407,198.413262 C1590.48912,203.619138 1587.83998,209.033169 1583.155,212.155477 C1569.71029,221.317292 1559.32087,221.109532 1551.78367,221.109532 C1523.46866,221.109532 1500.65297,197.580646 1500.65297,168.846277 C1500.65297,139.904769 1523.46866,116.584431 1551.78367,116.584431 C1576.43214,116.584431 1602.91438,134.907046 1602.91438,168.846277" id="Fill-33" fill="#00325C"></path>
            </g>
        </g>
    </g>
</svg>