<?xml version="1.0" encoding="UTF-8"?>
<svg width="1352px" height="280px" viewBox="0 0 1352 280" version="1.1" xmlns="http://www.w3.org/2000/svg" xmlns:xlink="http://www.w3.org/1999/xlink">
    <!-- Generator: Sketch 63.1 (92452) - https://sketch.com -->
    <title>wexpats_biz</title>
    <desc>Created with Sketch.</desc>
    <defs>
        <rect id="path-1" x="0" y="0" width="1352" height="280"></rect>
    </defs>
    <g id="wexpats_biz" stroke="none" stroke-width="1" fill="none" fill-rule="evenodd">
        <mask id="mask-2" fill="white">
            <use xlink:href="#path-1"></use>
        </mask>
        <g id="Mask"></g>
        <g mask="url(#mask-2)" fill-rule="nonzero">
            <g transform="translate(8.000000, 8.000000)">
                <path d="M203.29927,116.352701 C203.293639,64.7764417 171.416563,18.5694442 123.203212,0.250510949 C121.295593,-0.455864909 119.163065,0.397979349 118.270073,2.22569343 L115.543358,8.00671533 C115.067783,8.99456846 115.02972,10.1369164 115.438481,11.1542361 C115.847241,12.1715558 116.665114,12.9699871 117.691971,13.3541606 C118.8,13.7684672 119.927299,14.2213139 121.160584,14.7416058 L118.655474,21.3512409 C118.069628,22.8888434 118.777828,24.6171889 120.274161,25.3016058 L124.542482,27.2286131 C125.929305,27.855575 127.56614,27.3768009 128.396496,26.1013139 L132.308321,20.1179562 C167.309601,39.5065142 189.045252,76.3497879 189.087591,116.362336 C189.203185,145.325545 177.566769,173.097189 156.839124,193.327007 C136.074608,213.658359 108.125453,224.97375 79.0651095,224.814307 C64.8562179,224.826977 50.7819476,222.06122 37.6344526,216.672701 L40.1491971,210.034161 C40.7350436,208.496558 40.0268435,206.768213 38.5305109,206.083796 L34.2718248,204.156788 C32.8661955,203.515553 31.2029498,203.998959 30.36,205.293723 L26.4,211.344526 C25.349781,210.776058 24.3766423,210.236496 23.5094891,209.706569 C22.5648198,209.145229 21.4272546,209.008209 20.3763111,209.329178 C19.3253677,209.650147 18.4584644,210.399351 17.9886131,211.392701 L15.2426277,217.173723 C14.4322212,219.009138 15.1340564,221.160325 16.8709489,222.164672 C32.8554745,231.462482 53.3877372,237.445839 73.4189781,238.679124 L73.3611679,247.350657 L51.0656934,246.252263 C48.443889,246.208614 45.9510437,247.387374 44.3211679,249.44146 L39.2820438,255.887299 C38.4462583,256.947235 38.2908836,258.392013 38.8821889,259.605421 C39.4734942,260.818829 40.7071291,261.58673 42.0569343,261.581631 L118.395328,261.581631 C119.741678,261.581631 120.969135,260.810282 121.558923,259.599987 C122.148712,258.389693 121.997896,256.94919 121.170219,255.887299 L116.092555,249.42219 C114.462974,247.36308 111.973854,246.171858 109.348029,246.194453 L109.348029,246.194453 L87.1874453,247.389197 L87.1874453,238.544234 C152.397372,233.447299 203.29927,180.030657 203.29927,116.352701 Z" id="Path" fill="#00325C"></path>
                <path d="M400.287591,81.4931387 L354.569343,205.004672 C353.145477,208.946109 349.460262,211.619321 345.271533,211.749197 L345.069197,211.749197 C340.871317,211.646243 337.172502,208.963166 335.771387,205.004672 L314.208175,147.435328 L292.240292,205.004672 C290.818671,208.947797 287.132119,211.62198 282.942482,211.749197 L282.740146,211.749197 C278.542265,211.646243 274.843451,208.963166 273.442336,205.004672 L229.121168,82.2928467 C228.141509,79.7878465 228.200748,76.9956772 229.285772,74.534482 C230.370795,72.0732867 232.392096,70.1460967 234.90219,69.179562 C240.047299,67.1272993 245.57781,69.7962044 247.562628,75.1243796 L282.952117,173.025985 L304.92,115.456642 C306.500146,111.361752 310.25781,108.712117 314.21781,108.904818 C318.436299,108.754435 322.238109,111.433431 323.51562,115.456642 L345.281168,173.025985 L381.894307,74.2764964 C383.821314,68.9579562 389.409635,66.2890511 394.554745,68.3413139 C397.065549,69.3168865 399.083053,71.2543554 400.159406,73.7236354 C401.235759,76.1929154 401.281901,78.9896958 400.287591,81.4931387 Z" id="Path" fill="#00325C"></path>
                <path d="M500.637172,160.346277 C500.667337,162.991617 499.64069,165.539777 497.784554,167.424858 C495.928419,169.309939 493.396449,170.375891 490.750949,170.385985 L422.486715,170.385985 C426.639416,182.670657 437.719708,191.486715 450.977518,191.486715 C458.887556,191.608655 466.637145,189.250084 473.138102,184.74219 C477.685839,181.668613 483.823358,184.539854 486.193577,189.453723 C488.573431,194.579562 486.000876,199.907737 481.443504,202.942774 C468.388029,211.951533 458.319416,211.749571 450.977518,211.749571 C423.479124,211.749571 401.308905,188.625109 401.308905,160.327007 C401.308905,131.845839 423.469489,108.904818 450.977518,108.904818 C474.920584,108.924088 500.637172,126.951241 500.637172,160.346277 Z M422.486715,150.104234 L479.670657,150.104234 C475.508321,135.757664 462.847883,129.205839 450.977518,129.205839 C437.719708,129.205839 426.639416,138.012263 422.486715,150.104234 Z" id="Shape" fill="#00325C"></path>
                <path d="M621.912701,194.762628 C625.293593,199.166194 624.498522,205.470893 620.130219,208.897226 C618.475948,210.31902 616.376063,211.116704 614.195036,211.151825 C611.173203,211.106559 608.33632,209.688118 606.487007,207.29781 L568.091387,156.646423 L527.92292,207.866277 C526.076375,210.25995 523.237755,211.67926 520.214891,211.720292 C518.034175,211.683552 515.934821,210.88607 514.279708,209.465693 C509.91451,206.036472 509.123784,199.732152 512.506861,195.331095 L555.64292,140.01635 L512.892263,85.0966423 C509.536751,80.6152776 510.324031,74.2829812 514.674745,70.759708 C516.692695,69.0955644 519.313602,68.3491041 521.905542,68.7003056 C524.497482,69.0515071 526.825247,70.4685002 528.327591,72.609635 L568.101022,123.415182 L607.08438,72.609635 C608.588557,70.4709314 610.916026,69.0558851 613.507039,68.7048092 C616.098052,68.3537333 618.718156,69.0983957 620.737226,70.759708 C625.098997,74.277937 625.883467,80.6219145 622.510073,85.0966423 L580.568759,140.01635 L621.912701,194.762628 Z" id="Path" fill="#44C6C5"></path>
                <path d="M660.809343,202.143066 L660.809343,253.150949 C660.921403,256.723267 659.07957,260.073245 656.003179,261.892539 C652.926787,263.711832 649.10387,263.711832 646.027478,261.892539 C642.951086,260.073245 641.109254,256.723267 641.221314,253.150949 L641.221314,161.165255 C641.221314,132.896058 663.574599,109.743066 690.880292,109.743066 C718.388321,109.743066 740.548905,132.867153 740.548905,161.165255 C740.548905,189.636788 718.388321,212.587445 690.880292,212.587445 C679.966957,212.588888 669.37218,208.909062 660.809343,202.143066 L660.809343,202.143066 Z M660.809343,161.165255 L660.809343,161.367591 C660.809343,178.373431 674.298394,192.305693 690.880292,192.305693 C707.46219,192.305693 720.960876,178.373431 720.960876,161.165255 C720.960876,144.159416 707.471825,130.024818 690.880292,130.024818 C674.288759,130.024818 660.809343,143.95708 660.809343,161.165255 Z" id="Shape" fill="#44C6C5"></path>
                <path d="M856.140438,161.165255 L856.140438,201.314453 C856.140438,207.25927 851.978102,211.556496 846.245255,211.556496 C842.285255,211.556496 836.745109,207.25927 836.745109,201.314453 C828.237372,208.67562 818.746861,211.566131 807.464234,211.566131 C779.522628,211.566131 757.362044,190.06073 757.362044,161.174891 C757.362044,132.289051 779.522628,109.348029 807.464234,109.348029 C835.405839,109.348029 856.140438,132.279416 856.140438,161.165255 Z M836.745109,161.165255 C836.745109,143.95708 824.084672,129.369635 807.464234,129.369635 C790.843796,129.369635 776.795912,143.91854 776.795912,161.165255 C776.816122,169.261042 780.064869,177.01433 785.821936,182.706284 C791.579003,188.398238 799.368741,191.558589 807.464234,191.486715 C824.084672,191.486715 836.745109,178.373431 836.745109,161.165255 Z" id="Shape" fill="#44C6C5"></path>
                <path d="M939.358248,107.604088 L915.578978,107.604088 L915.578978,65.3159124 C915.473509,59.8460339 910.961228,55.4932125 905.491095,55.5831148 C900.081462,55.5524748 895.667235,59.9063511 895.624818,65.3159124 L895.624818,107.604088 L872.50073,107.604088 C867.087346,107.566697 862.667231,111.922127 862.624818,117.335474 C862.676344,122.779373 867.057308,127.190256 872.50073,127.278832 L895.624818,127.278832 L895.624818,201.545693 C895.792322,206.935212 900.209777,211.217506 905.601898,211.217506 C910.994019,211.217506 915.411473,206.935212 915.578978,201.545693 L915.578978,127.278832 L939.358248,127.278832 C944.886538,127.310902 949.398429,122.863652 949.446131,117.335474 C949.340663,111.865596 944.828381,107.512775 939.358248,107.604088 Z" id="Path" fill="#44C6C5"></path>
                <path d="M999.20146,150.624526 L999.20146,150.624526 C984.748905,145.604672 981.193577,142.020438 981.068321,136.335766 C980.952701,131.518248 985.529343,126.70073 996.272409,126.459854 C1003.01693,126.305693 1012.40146,129.292555 1012.7965,129.45635 C1015.27258,130.290587 1017.96956,130.180787 1020.36964,129.148029 C1022.69037,128.168687 1024.50106,126.270782 1025.37022,123.906569 C1027.06599,119.204672 1024.20438,113.963212 1018.98219,112.21927 C1018.86657,112.21927 1006.10015,108.557956 996.301314,108.471241 C975.932847,108.288175 961.441752,120.553577 961.836788,137.29927 C962.154745,150.923212 971.770511,161.666277 990.423942,167.447299 C1005.35825,172.534599 1006.69752,177.390657 1006.8035,182.323796 C1006.98657,190.031825 1000.90686,194.126715 990.529927,194.184526 C983.091679,194.184526 975.913577,191.467445 971.606715,190.06073 C970.432314,189.672841 969.201342,189.483962 967.964672,189.501898 C964.629151,189.576332 961.601466,191.469098 960.073577,194.435036 C959.009793,196.586448 958.935923,199.094526 959.871241,201.304818 C960.867992,203.674846 962.722742,205.581213 965.064526,206.642628 L965.498102,206.844964 C973.063691,210.813156 981.528929,212.751862 990.067445,212.471825 C1001.72584,212.192409 1011.37051,208.820146 1018.00905,202.730803 C1024.08876,197.103942 1027.33577,190.205255 1027.13343,181.764964 C1026.85401,171.6 1023.34686,159.170803 999.20146,150.624526 Z" id="Path" fill="#44C6C5"></path>
                <path d="M158.978102,76.5407299 C144.171495,49.7044524 116.022169,32.9608021 85.3728501,32.7591986 C54.7235311,32.557595 26.3563793,48.9294941 11.1980242,75.5686696 C-3.96033096,102.207845 -3.54475748,134.957833 12.2846715,161.203796 C12.939854,162.331095 13.6143066,163.458394 14.3272993,164.556788 C14.4196646,164.693608 14.4196646,164.872816 14.3272993,165.009635 L3.27591241,183.470365 C3.17123114,183.622461 3.15159192,183.817525 3.22385304,183.987436 C3.29611415,184.157347 3.45024037,184.27851 3.63240876,184.308613 L36.3915328,187.873577 C36.4888572,187.891845 36.580965,187.931319 36.6613139,187.989197 C69.1413677,210.935879 113.21018,208.202896 142.606123,181.418896 C172.002066,154.634897 178.812156,111.009765 158.978102,76.5407299 Z M55.8832117,124.715912 C55.8832188,126.686352 54.2886807,128.2852 52.3182482,128.290511 L45.8627737,128.290511 C43.8885775,128.290511 42.2881752,126.690109 42.2881752,124.715912 L42.2881752,117.903942 C42.2881752,115.929745 43.8885775,114.329343 45.8627737,114.329343 L52.3760584,114.329343 C54.3464909,114.334654 55.9410219,115.933502 55.9410219,117.903942 L55.8832117,124.715912 Z M91.5328467,124.715912 C91.5328467,126.686352 89.9383157,128.2852 87.9678832,128.290511 L81.4545985,128.290511 C79.4804023,128.290511 77.88,126.690109 77.88,124.715912 L77.88,117.903942 C77.88,115.929745 79.4804023,114.329343 81.4545985,114.329343 L87.9678832,114.329343 C89.9383157,114.334654 91.5328467,115.933502 91.5328467,117.903942 L91.5328467,124.715912 Z M128.145985,124.715912 C128.145985,126.690109 126.545583,128.290511 124.571387,128.290511 L118.058102,128.290511 C116.08767,128.2852 114.493139,126.686352 114.493139,124.715912 L114.493139,117.903942 C114.493139,115.933502 116.08767,114.334654 118.058102,114.329343 L124.571387,114.329343 C125.519429,114.329343 126.428642,114.705951 127.09901,115.376319 C127.769377,116.046686 128.145985,116.955899 128.145985,117.903942 L128.145985,124.715912 Z" id="Shape" fill="#44C6C5"></path>
                <path d="M1197.51942,171.648175 C1197.30745,193.500438 1180.2438,210.988029 1158.6035,212.645806 L1103.21168,212.645806 C1100.44489,212.67385 1097.78294,211.588036 1095.82552,209.632421 C1093.86809,207.676805 1092.77981,205.015869 1092.80538,202.249051 L1092.80538,77.7836496 C1092.91091,72.0056287 1097.6254,67.3778101 1103.40438,67.3778101 L1143.56321,67.3778101 C1165.42511,68.630365 1184.15562,86.1083212 1184.15562,109.010803 C1184.01207,118.38352 1180.79264,127.449389 1174.9927,134.813431 C1188.71217,142.006145 1197.36709,156.158313 1197.51942,171.648175 Z M1141.95416,88.2376642 L1113.64642,88.2376642 L1113.64642,130.073272 L1141.95416,130.073272 C1153.758,130.132534 1163.40975,120.67846 1163.59445,108.875912 C1163.39212,97.140438 1153.81489,88.2376642 1141.95416,88.2376642 Z M1176.91971,171.69635 C1176.91971,161.290511 1167.55445,151.096642 1156.09839,150.884672 L1113.64642,150.884672 L1113.64642,191.881752 L1157.16788,191.881752 C1167.34248,191.833577 1176.91971,182.892263 1176.91971,171.648175 L1176.91971,171.69635 Z" id="Shape" fill="#00325C"></path>
                <path d="M1216.35591,84.4510949 C1213.51794,81.9012114 1212.32195,77.9914585 1213.24772,74.2902524 C1214.17349,70.5890463 1217.06934,67.7027697 1220.7736,66.7892663 C1224.47785,65.8757629 1228.38362,67.0846955 1230.92409,69.9310949 C1234.94698,73.9539854 1234.94698,80.4763796 1230.92409,84.4992701 C1226.9012,88.5221606 1220.3788,88.5221606 1216.35591,84.4992701 L1216.35591,84.4510949 Z M1213.23416,202.249051 L1213.23416,118.376058 C1213.23416,112.687606 1217.84556,108.076204 1223.53401,108.076204 C1229.22247,108.076204 1233.83387,112.687606 1233.83387,118.376058 L1233.83387,202.249051 C1233.83387,207.937503 1229.22247,212.548905 1223.53401,212.548905 C1217.84556,212.548905 1213.23416,207.937503 1213.23416,202.249051 L1213.23416,202.249051 Z" id="Shape" fill="#00325C"></path>
                <path d="M1335.9749,202.03708 C1335.98122,207.704395 1331.44727,212.332623 1325.78102,212.442988 L1261.05285,212.442988 C1257.08473,212.457256 1253.45322,210.215582 1251.68759,206.661898 C1249.80547,203.105645 1250.21429,198.771388 1252.72818,195.629781 L1304.75737,128.618102 L1260.63854,128.618102 C1254.96852,128.51299 1250.42881,123.883256 1250.43503,118.212263 C1250.44566,112.582988 1255.00926,108.023695 1260.63854,108.018394 L1325.35708,108.018394 C1329.35036,107.912751 1333.02705,110.182309 1334.72234,113.799416 C1336.6008,117.286935 1336.18992,121.56317 1333.68175,124.629197 L1281.65255,191.843212 L1325.78102,191.843212 C1331.40435,191.859089 1335.95901,196.413752 1335.9749,202.03708 L1335.9749,202.03708 Z" id="Path" fill="#00325C"></path>
            </g>
        </g>
    </g>
</svg>