<svg width="128" height="128" xmlns="http://www.w3.org/2000/svg"><path d="M89.123 48.789c5.827 5.826 6.446 14.905 1.887 21.516l.09.075 13.553 12.269a4.044 4.044 0 11-5.573 5.857l-.138-.146-12.27-13.554-.075-.089c-6.61 4.56-15.689 3.94-21.515-1.887-6.573-6.573-6.52-17.283.119-23.922 6.639-6.639 17.35-6.692 23.922-.12zM22.338 57.8c.958.73 2.06 1.143 3.208 1.202l.287.008h23.334v4.415c0 .765.577 1.393 1.317 1.464l.14.007h6.756C59.193 74.078 67.288 81 77 81c3.39 0 6.584-.844 9.382-2.332l3.04 3.498c-.913 1.909-2.818 3.247-5.037 3.33l-.218.004H25.833c-3.144 0-5.714-2.521-5.829-5.666l-.004-.22v-20.64c0-.56.313-1.07.809-1.319a1.437 1.437 0 011.53.146zm46.28-5.477c-4.687 4.687-4.687 12.285 0 16.97 4.685 4.687 12.283 4.687 16.97 0 4.686-4.685 4.686-12.283 0-16.97-4.687-4.686-12.285-4.686-16.97 0zM63.75 27.5c3.142 0 5.711 2.482 5.83 5.578l.003.222v2.9h14.584c3.142 0 5.711 2.482 5.829 5.578L90 42v3.801A19.921 19.921 0 0077 41c-8.431 0-15.644 5.217-18.586 12.6h-7.789c-.759 0-1.381.574-1.452 1.31l-.006.14v1.45H25.833c-3.142 0-5.711-2.482-5.829-5.578L20 50.7V42c0-3.124 2.496-5.679 5.61-5.796l.223-.004h14.584v-2.9c0-3.124 2.496-5.679 5.61-5.796l.223-.004h17.5zm0 5.8h-17.5v2.9h17.5v-2.9z" fill="#44C6C5" fill-rule="nonzero"/></svg>