<svg width="128" height="128" xmlns="http://www.w3.org/2000/svg"><path d="M104.136 61c.477 0 .864.467.864 1.042 0 4.44-.622 8.877-1.852 13.19-.067.237-.207.439-.388.564l-5.737 3.954h3.2c.303 0 .585.194.742.506.155.317.162.707.02 1.03-5.756 12.879-16.737 20.972-28.8 21.345a61.578 61.578 0 00-3.532 7.754c-.144.386-.46.615-.79.615a.738.738 0 01-.354-.092c-.433-.235-.628-.852-.433-1.377 2.862-7.698 6.804-13.896 12.317-21.016l.207-.271c.377-.483.76-.975 1.152-1.469.686-.867 1.368-1.723 2.04-2.548.334-.41.329-1.07-.012-1.473-.34-.406-.89-.398-1.22.015-4.462 5.49-8.036 10.264-10.954 15.227C72.136 77.292 86.58 61 104.136 61zM86 21a5 5 0 015 5v34.576c-5.224 2.627-10.723 7.591-15.18 14.197-5.204 7.716-7.798 15.914-7.542 22.228L35 97a5 5 0 01-5-5V26a5 5 0 015-5h51zM58 55H43a4 4 0 00-.2 7.995L43 63h15a4 4 0 100-8zm12-14H43a4 4 0 00-.2 7.995L43 49h27a4 4 0 100-8z" fill="#44C6C5" fill-rule="evenodd"/></svg>