<svg width="128" height="128" xmlns="http://www.w3.org/2000/svg"><path d="M80.49 35A3.518 3.518 0 0184 38.524v41.384a3.518 3.518 0 01-3.51 3.524H54.804L35.307 93.795a1.752 1.752 0 01-2.373-.733 1.768 1.768 0 01-.204-.824v-8.806H22.51A3.518 3.518 0 0119 79.908V38.524A3.518 3.518 0 0122.51 35h57.98zm7.631 10h18.102a2.786 2.786 0 012.772 2.628l.005.17v27.013a2.79 2.79 0 01-2.608 2.793l-.169.005h-2.637V84.6c0 .228-.055.453-.161.654-.337.64-1.096.91-1.748.643l-.13-.06-9.976-8.23h-3.45V45zM69 62H34a4 4 0 00-.2 7.995L34 70h35a4 4 0 100-8zM52 48H34a4 4 0 00-.2 7.995L34 56h18a4 4 0 100-8z" fill="#44C6C5" fill-rule="nonzero"/></svg>