<svg width="462" height="57" xmlns="http://www.w3.org/2000/svg"><path d="M6.216 39.648l4.2-22.512L18.2 39.928c.392 1.12 1.456 1.96 2.688 1.96 1.232 0 2.296-.784 2.688-1.96l8.792-23.632 4.76 23.352c.28 1.344 1.456 2.296 2.744 2.296.168 0 .392-.056.56-.056a2.841 2.841 0 002.184-3.304l-6.832-33.6c-.224-1.288-1.344-2.24-2.632-2.296a2.822 2.822 0 00-2.8 1.96l-9.408 25.536-9.072-25.48c-.392-1.232-1.568-2.072-2.856-1.96C7.728 2.8 6.608 3.752 6.384 5.04L.728 38.696c-.28 1.568.728 2.968 2.296 3.248 1.512.28 2.968-.784 3.192-2.296zm63.392 2.296c1.624 0 2.8-1.176 2.8-2.8V28.168c0-7.896-5.88-14.168-13.776-14.168s-14.168 6.272-14.168 14.168c0 7.896 6.272 13.776 14.168 13.776 3.192 0 5.88-.784 8.288-2.8 0 1.624 1.568 2.8 2.688 2.8zm-10.976-5.488c-4.704 0-8.68-3.584-8.68-8.288 0-4.704 3.976-8.68 8.68-8.68s8.288 3.976 8.288 8.68-3.584 8.288-8.288 8.288zm37.296 5.432c.616 0 1.232-.224 1.736-.672 1.176-.952 1.344-2.688.392-3.864L87.864 25.088l9.8-6.44c1.176-.952 1.344-2.744.392-3.92-1.008-1.176-2.744-1.288-3.92-.336l-12.712 8.344V2.8c0-1.512-1.288-2.744-2.8-2.744A2.748 2.748 0 0075.88 2.8v36.288c0 1.568 1.232 2.8 2.744 2.8 1.512 0 2.8-1.232 2.8-2.8v-9.8l1.736-1.176L93.8 40.88c.504.672 1.288 1.008 2.128 1.008zm25.256-2.296c1.288-.84 2.016-2.296 1.344-3.696-.672-1.344-2.408-2.128-3.696-1.288-2.688 1.736-4.984 1.848-6.272 1.848-3.752 0-6.888-2.408-8.064-5.768h19.32c1.568 0 2.8-1.232 2.8-2.744 0-9.128-7.28-14.056-14.056-14.056a14.03 14.03 0 00-14.056 14.056c0 7.728 6.272 14.056 14.056 14.056 2.072 0 4.928.056 8.624-2.408zm-.504-14.448h-16.184c1.176-3.304 4.312-5.712 8.064-5.712 3.36 0 6.944 1.792 8.12 5.712zm36.4 16.576c6.216 0 11.312-5.04 11.368-11.256V5.432c0-1.512-1.232-2.744-2.8-2.744a2.748 2.748 0 00-2.744 2.744v24.92c0 3.192-2.632 5.824-5.824 5.824-3.192 0-5.768-2.632-5.768-5.32 0-1.568-1.288-2.688-2.8-2.688-1.512 0-2.744 1.12-2.744 2.688.168 5.712 5.096 10.864 11.312 10.864zm39.816.224c1.624 0 2.8-1.176 2.8-2.8V28.168c0-7.896-5.88-14.168-13.776-14.168s-14.168 6.272-14.168 14.168c0 7.896 6.272 13.776 14.168 13.776 3.192 0 5.88-.784 8.288-2.8 0 1.624 1.568 2.8 2.688 2.8zm-10.976-5.488c-4.704 0-8.68-3.584-8.68-8.288 0-4.704 3.976-8.68 8.68-8.68s8.288 3.976 8.288 8.68-3.584 8.288-8.288 8.288zm19.992 19.6a2.748 2.748 0 002.744-2.744V39.368a14.03 14.03 0 008.512 2.856 14.03 14.03 0 0014.056-14.056c0-7.728-6.272-14.056-14.056-14.056-7.728 0-14.056 6.328-14.056 14.056v25.144c0 1.512 1.232 2.744 2.8 2.744zm11.256-19.376c-4.704 0-8.512-3.808-8.512-8.456v-.056a8.508 8.508 0 018.512-8.512c4.704 0 8.512 3.864 8.512 8.512a8.508 8.508 0 01-8.512 8.512zm42.504 5.264c1.624 0 2.8-1.176 2.8-2.8V28.168c0-7.896-5.88-14.168-13.776-14.168s-14.168 6.272-14.168 14.168c0 7.896 6.272 13.776 14.168 13.776 3.192 0 5.88-.784 8.288-2.8 0 1.624 1.568 2.8 2.688 2.8zm-10.976-5.488c-4.704 0-8.68-3.584-8.68-8.288 0-4.704 3.976-8.68 8.68-8.68s8.288 3.976 8.288 8.68-3.584 8.288-8.288 8.288zM291.144 42c1.568 0 2.8-1.232 2.8-2.8V27.944c0-7.784-6.328-14.056-14.056-14.056-7.728 0-14.056 6.272-14.056 14.056V39.2c0 1.568 1.232 2.8 2.744 2.8 1.568 0 2.8-1.232 2.8-2.8V27.944a8.508 8.508 0 018.512-8.512 8.508 8.508 0 018.512 8.512V39.2c0 1.568 1.232 2.8 2.744 2.8zm42.84 0c6.72 0 12.712-3.36 16.408-9.072 1.008-1.288.336-3.024-1.008-3.696-.952-1.008-3.024-.672-3.696.672-2.632 4.032-7.056 6.384-11.704 6.384-7.672 0-14.056-6.048-14.056-13.776 0-7.672 6.384-14 14.056-14 4.984 0 9.408 2.632 12.04 7 .672 1.344 2.408 1.68 3.696 1.008 1.344-.616 2.016-2.352 1.008-4.032-3.36-6.048-9.688-9.688-16.744-9.688-10.752 0-19.768 8.68-19.768 19.712 0 10.752 9.016 19.488 19.768 19.488zm23.352.056c1.512 0 2.744-1.232 2.744-2.8V2.8a2.748 2.748 0 00-2.744-2.744c-1.568 0-2.8 1.232-2.8 2.744v36.456c0 1.568 1.232 2.8 2.8 2.8zM377.328 42c7.784 0 14.056-6.328 14.056-14.056a14.03 14.03 0 00-14.056-14.056c-7.728 0-14.056 6.272-14.056 14.056 0 7.728 6.328 14.056 14.056 14.056zm0-5.544c-4.704 0-8.512-3.864-8.512-8.512a8.508 8.508 0 018.512-8.512 8.508 8.508 0 018.512 8.512c0 4.648-3.808 8.512-8.512 8.512zm25.2 5.6c4.648 0 8.4-3.808 8.4-8.456 0-2.24-.84-4.312-2.464-5.936a8.392 8.392 0 00-5.936-2.464 2.868 2.868 0 01-2.856-2.856 2.868 2.868 0 012.856-2.856c1.344 0 2.296.616 2.632 1.512.504 1.4 1.792 2.408 3.304 2.072 1.512-.28 2.408-1.792 2.128-3.304-.56-3.136-4.144-5.824-8.064-5.824a8.389 8.389 0 00-8.4 8.4c0 2.24.84 4.368 2.464 5.936a8.392 8.392 0 005.936 2.464 2.868 2.868 0 012.856 2.856c0 1.624-1.288 2.912-2.856 2.912-1.344 0-2.016-.224-2.8-1.68-.728-1.4-1.792-2.464-3.304-2.184-1.456.336-2.632 1.848-2.128 3.304 1.064 3.248 4.256 6.104 8.232 6.104zm33.768-2.464c1.288-.84 2.016-2.296 1.344-3.696-.672-1.344-2.408-2.128-3.696-1.288-2.688 1.736-4.984 1.848-6.272 1.848-3.752 0-6.888-2.408-8.064-5.768h19.32c1.568 0 2.8-1.232 2.8-2.744 0-9.128-7.28-14.056-14.056-14.056a14.03 14.03 0 00-14.056 14.056c0 7.728 6.272 14.056 14.056 14.056 2.072 0 4.928.056 8.624-2.408zm-.504-14.448h-16.184c1.176-3.304 4.312-5.712 8.064-5.712 3.36 0 6.944 1.792 8.12 5.712zm12.096 16.912c1.512 0 2.744-1.288 2.744-2.8V28a8.508 8.508 0 018.512-8.512c1.568 0 2.8-1.288 2.8-2.8 0-1.512-1.232-2.744-2.8-2.744-7.728 0-14.056 6.272-14.056 14.056v11.256c0 1.512 1.232 2.8 2.8 2.8z" fill="#00325C" fill-rule="nonzero"/></svg>