<?xml version="1.0" encoding="UTF-8"?>
<svg width="1043px" height="280px" viewBox="0 0 1043 280" version="1.1" xmlns="http://www.w3.org/2000/svg" xmlns:xlink="http://www.w3.org/1999/xlink">
    <!-- Generator: Sketch 63.1 (92452) - https://sketch.com -->
    <title>wexpats</title>
    <desc>Created with Sketch.</desc>
    <defs>
        <rect id="path-1" x="0" y="0" width="1043" height="280"></rect>
        <polygon id="path-3" points="0.488881752 0.713281752 99.8184 0.713281752 99.8184 154.160584 0.488881752 154.160584"></polygon>
    </defs>
    <g id="wexpats" stroke="none" stroke-width="1" fill="none" fill-rule="evenodd">
        <mask id="mask-2" fill="white">
            <use xlink:href="#path-1"></use>
        </mask>
        <g id="Mask"></g>
        <g id="Group-20" mask="url(#mask-2)">
            <g transform="translate(8.000000, 8.000000)">
                <path d="M202.371994,116.350485 C202.371994,90.6654044 194.593629,66.017054 179.878038,45.0714482 C165.497746,24.6047036 145.579235,9.10482044 122.275936,0.250221898 C120.392286,-0.46469781 118.221512,0.402455474 117.347615,2.22829489 L114.615118,7.97559416 C114.139147,8.96511241 114.103498,10.1155358 114.512987,11.1204701 C114.917658,12.1340759 115.739527,12.9405285 116.769512,13.3297839 C117.870797,13.743127 119.003877,14.1950102 120.238126,14.7143387 L117.729162,21.3268642 C117.143352,22.8578715 117.855381,24.5931416 119.349775,25.2753022 L123.616169,27.2196526 C125.028666,27.8700175 126.672403,27.3901927 127.517396,26.0923533 L131.430184,20.1138131 C146.055206,28.2024263 158.394797,39.2827182 168.128111,53.0598569 C181.266447,71.6641489 188.211381,93.5501343 188.211381,116.350485 C188.211381,145.584149 176.759177,172.91682 155.964841,193.315156 C135.256257,213.623886 107.634534,224.810164 78.1888993,224.810164 C63.9174832,224.810164 49.9852204,222.070923 36.7601693,216.665667 L39.2768409,210.028091 C39.8626511,208.492266 39.1515854,206.756032 37.6533372,206.075799 L33.3936876,204.130485 C31.9744467,203.489755 30.3345635,203.961872 29.4847533,205.265492 L25.5208993,211.319185 C24.4706803,210.749755 23.5033226,210.204412 22.6034102,209.673521 C21.6476146,209.119507 20.5145343,208.98558 19.4768409,209.306426 C18.4304759,209.627273 17.5585051,210.375915 17.0815708,211.369288 L14.3375124,217.137784 C13.4684321,218.96266 14.1563737,221.19028 15.9060964,222.208704 C31.8915854,231.498806 52.4228847,237.482164 72.451235,238.719302 L72.3963153,247.407215 L50.0517022,246.208616 C47.4367533,246.208616 45.0106511,247.387945 43.393892,249.443098 L38.3171912,255.905317 C37.4799066,256.973842 37.3267095,258.396937 37.9202277,259.624441 C38.5176,260.847127 39.7335416,261.605404 41.0891912,261.605404 L117.430476,261.605404 C118.787089,261.605404 120.002067,260.847127 120.604257,259.619623 C121.193921,258.396937 121.040724,256.973842 120.203439,255.90339 L115.125775,249.443098 C113.50998,247.389872 111.067498,246.210543 108.342709,246.210543 L108.335001,246.210543 L86.1358774,247.407215 L86.1358774,238.573813 C151.430593,233.449901 202.371994,180.026514 202.371994,116.350485" id="Fill-1" fill="#00325C"></path>
                <path d="M399.320041,81.4729051 L353.613355,205.007562 C352.030318,209.105343 348.272654,211.767504 344.314581,211.767504 L344.11899,211.767504 C339.961472,211.767504 336.202844,208.899153 334.820216,205.007562 L313.251223,147.438219 L291.289121,205.007562 C289.707048,209.105343 285.943603,211.767504 281.990347,211.767504 L281.790902,211.767504 C277.633384,211.767504 273.874756,208.899153 272.491165,205.007562 L228.16807,82.2889927 C226.190961,76.963708 228.761588,71.023708 233.907661,69.1814891 C239.053734,67.1292263 244.590026,69.7952409 246.57099,75.1214891 L281.990347,173.047182 L303.95245,115.477839 C305.535486,111.381022 309.29315,108.722715 313.251223,108.924088 C317.404888,108.722715 321.163515,111.381022 322.550961,115.477839 L344.314581,173.047182 L380.920975,74.3005839 C382.898085,68.9752993 388.438231,66.3131387 393.584304,68.3615474 C398.730377,70.2037664 401.301004,76.1476204 399.320041,81.4729051" id="Fill-3" fill="#00325C"></path>
                <path d="M421.519165,150.105101 L478.705997,150.105101 C474.548479,135.761422 461.88515,129.20767 450.014785,129.20767 C436.757939,129.20767 425.676683,138.01602 421.519165,150.105101 M499.675691,160.343291 C499.675691,165.879582 495.323545,170.384926 489.782435,170.384926 L421.519165,170.384926 C425.676683,182.676342 436.757939,191.488546 450.014785,191.488546 C454.562523,191.488546 462.678114,191.076166 472.172479,184.72475 C476.725034,181.654064 482.859661,184.522415 485.234698,189.43532 C487.60588,194.559232 485.035253,199.884517 480.483661,202.959057 C467.425296,211.973597 457.332596,211.76876 450.014785,211.76876 C422.511574,211.76876 400.350026,188.619232 400.350026,160.343291 C400.350026,131.870794 422.511574,108.923991 450.014785,108.923991 C473.953997,108.923991 499.675691,126.953072 499.675691,160.343291" id="Fill-5" fill="#00325C"></path>
                <path d="M620.947077,194.761279 C624.311632,199.270476 623.522523,205.621892 619.169413,208.898768 C617.387895,210.333425 615.410785,211.153366 613.230377,211.153366 C610.264712,211.153366 607.494639,209.718709 605.51753,207.262739 L567.129618,156.659527 L526.963077,207.876491 C524.985968,210.333425 522.215895,211.768082 519.246377,211.768082 C517.069822,211.768082 515.092712,210.947177 513.311194,209.517337 C508.958085,206.236607 508.165121,199.884228 511.528712,195.379848 L554.665734,140.06414 L511.923749,85.1579212 C508.564012,80.6525781 509.353121,74.301162 513.705267,70.8180964 C517.862785,67.3388847 523.997413,68.1549723 527.35715,72.6641693 L567.129618,123.469717 L606.108158,72.6641693 C609.471749,68.1549723 615.606377,67.3388847 619.762931,70.8180964 C624.116041,74.301162 624.90515,80.6525781 621.541559,85.1579212 L579.597355,140.06414 L620.947077,194.761279 Z" id="Fill-7" fill="#44C6C5"></path>
                <g id="Group-11" stroke-width="1" fill="none" transform="translate(639.766423, 109.031036)">
                    <mask id="mask-4" fill="white">
                        <use xlink:href="#path-3"></use>
                    </mask>
                    <g id="Clip-10"></g>
                    <path d="M20.0759474,52.1373985 L20.0759474,52.3387708 C20.0759474,69.3417197 33.5322394,83.273019 50.1536409,83.273019 C66.7760058,83.273019 80.2284438,69.3417197 80.2284438,52.1373985 C80.2284438,35.1305956 66.7760058,20.9921431 50.1536409,20.9921431 C33.5322394,20.9921431 20.0759474,34.9244058 20.0759474,52.1373985 M20.0759474,93.1075007 L20.0759474,144.119238 C20.0759474,149.651676 15.722838,154.160873 10.3821372,154.160873 C4.84199124,154.160873 0.488881752,149.651676 0.488881752,144.119238 L0.488881752,52.3387708 L0.488881752,52.1373985 C0.488881752,23.8614569 22.8460204,0.713281752 50.1536409,0.713281752 C77.6568526,0.713281752 99.8184,23.8614569 99.8184,52.1373985 C99.8184,80.6108584 77.6568526,103.556698 50.1536409,103.556698 C38.8739036,103.556698 28.3861664,99.6622161 20.0759474,93.1075007" id="Fill-9" fill="#44C6C5" mask="url(#mask-4)"></path>
                </g>
                <path d="M835.783918,161.168435 C835.783918,143.955442 823.119626,129.409428 806.498225,129.409428 C789.876823,129.409428 775.830867,143.955442 775.830867,161.168435 C775.830867,178.372756 789.876823,191.487968 806.498225,191.487968 C823.119626,191.487968 835.783918,178.372756 835.783918,161.168435 M855.175393,161.168435 L855.175393,201.318596 C855.175393,207.26245 851.018838,211.561603 845.282137,211.561603 C841.324064,211.561603 835.783918,207.26245 835.783918,201.318596 C827.273291,208.693253 817.778926,211.561603 806.498225,211.561603 C778.60094,211.561603 756.439393,190.049457 756.439393,161.168435 C756.439393,132.278742 778.60094,109.336756 806.498225,109.336756 C834.397436,109.336756 855.175393,132.278742 855.175393,161.168435" id="Fill-12" fill="#44C6C5"></path>
                <path d="M938.39802,107.605147 L914.61875,107.605147 L914.61875,65.3150453 C914.61875,59.9473664 910.09221,55.5807679 904.532794,55.5807679 C899.085145,55.5807679 894.657845,59.9473664 894.657845,65.3150453 L894.657845,107.605147 L871.562663,107.605147 C866.115013,107.605147 861.687714,111.971746 861.687714,117.340388 C861.687714,122.729264 866.2104,127.282782 871.562663,127.282782 L894.657845,127.282782 L894.657845,201.543863 C894.657845,206.932739 899.180531,211.486257 904.532794,211.486257 C910.09221,211.486257 914.61875,207.025235 914.61875,201.543863 L914.61875,127.282782 L938.39802,127.282782 C943.9584,127.282782 948.485904,122.821761 948.485904,117.340388 C948.485904,111.971746 943.9584,107.605147 938.39802,107.605147" id="Fill-14" fill="#44C6C5"></path>
                <path d="M998.240558,150.623562 L998.224178,150.617781 C983.731156,145.594073 980.223039,142.007912 980.090076,136.327095 C979.978309,131.517285 984.553988,126.708438 995.295127,126.454073 C1002.08686,126.292204 1011.43189,129.280029 1011.82789,129.444788 C1014.3224,130.280146 1017.02695,130.176088 1019.39717,129.139358 C1021.77221,128.101664 1023.54602,126.238248 1024.39486,123.894044 C1026.09159,119.196964 1023.22999,113.955504 1018.01262,112.209635 C1017.89314,112.171095 1005.13154,108.546394 995.326923,108.457752 C974.961346,108.274686 960.469288,120.545869 960.859507,137.292526 C961.177463,150.916467 970.797083,161.657606 989.447623,167.439591 C1004.38964,172.525927 1005.72891,177.377168 1005.84453,182.312234 C1006.0247,190.059766 999.939215,194.120934 989.561317,194.177781 C982.126923,194.217285 974.950747,191.460701 970.645813,190.056876 C969.410601,189.653168 968.181171,189.464321 967.002806,189.492263 C966.208879,189.511533 965.440003,189.628117 964.70774,189.843942 C962.215156,190.579095 960.228412,192.205489 959.115565,194.421547 C958.046076,196.548 957.973813,198.988555 958.910339,201.292292 C959.850718,203.611445 961.696791,205.50762 964.10555,206.630102 L964.5372,206.831474 C971.003273,210.423416 979.79428,212.681869 989.104616,212.460263 C1000.75819,212.183737 1010.40575,208.815328 1017.00094,202.718277 C1023.07872,197.099124 1026.32091,190.236088 1026.12243,181.758219 C1025.8854,171.603854 1022.38692,159.170803 998.240558,150.623562" id="Fill-16" fill="#44C6C5"></path>
                <path d="M127.239907,124.719092 C127.239907,126.691384 125.640491,128.2908 123.668199,128.2908 L117.154914,128.2908 C115.182622,128.2908 113.584169,126.691384 113.584169,124.719092 L113.584169,117.900377 C113.584169,115.928085 115.182622,114.328669 117.154914,114.328669 L123.668199,114.328669 C125.640491,114.328669 127.239907,115.928085 127.239907,117.900377 L127.239907,124.719092 Z M90.6007533,124.719092 C90.6007533,126.691384 89.0013372,128.2908 87.0290453,128.2908 L80.5157606,128.2908 C78.5434686,128.2908 76.9440526,126.691384 76.9440526,124.719092 L76.9440526,117.900377 C76.9440526,115.928085 78.5434686,114.328669 80.5157606,114.328669 L87.0290453,114.328669 C89.0013372,114.328669 90.6007533,115.928085 90.6007533,117.900377 L90.6007533,124.719092 Z M54.9800234,124.719092 C54.9800234,126.691384 53.3806073,128.2908 51.4083153,128.2908 L44.8950307,128.2908 C42.9227387,128.2908 41.3233226,126.691384 41.3233226,124.719092 L41.3233226,117.900377 C41.3233226,115.928085 42.9227387,114.328669 44.8950307,114.328669 L51.4083153,114.328669 C53.3806073,114.328669 54.9800234,115.928085 54.9800234,117.900377 L54.9800234,124.719092 Z M158.05468,76.5400555 C134.712841,36.0883182 82.8108263,22.1628 42.3561985,45.5046394 C1.9015708,68.8464788 -12.0210569,120.74753 11.3188555,161.202158 C11.9730745,162.335238 12.6542715,163.455793 13.3624467,164.561895 C13.4501255,164.699676 13.447235,164.876961 13.3528117,165.010888 L2.31009635,183.472581 C2.08174599,183.795355 2.27251971,184.246274 2.66466569,184.306975 L35.4180088,187.876756 C35.5162861,187.892172 35.6087825,187.929749 35.6897168,187.987559 C50.3108847,198.352931 67.4448701,203.613661 84.6578628,203.613661 C99.2115854,203.613661 113.822155,199.852143 127.017337,192.239501 C167.471965,168.897661 181.395556,116.995647 158.05468,76.5400555 L158.05468,76.5400555 Z" id="Fill-18" fill="#44C6C5"></path>
            </g>
        </g>
    </g>
</svg>